<svg xmlns="http://www.w3.org/2000/svg" xmlns:xlink="http://www.w3.org/1999/xlink" version="1.1" x="0px" y="0px" viewBox="-25.6 -51.2 563.2 691.2" style="enable-background:new 0 0 512 512;" xml:space="preserve"><style type="text/css">
	.st0{fill-rule:evenodd;clip-rule:evenodd;}
</style><path class="st0" d="M268.387,277.614l-15.867,2.161v21.186c0,7.755-6.331,14.085-14.085,14.085h-24.493  c-7.755,0-14.085-6.331-14.085-14.085v-21.188C133.886,272.892,74.2,240.24,32.619,189.944v151.84  c0,19.177,15.706,34.884,34.884,34.884h238.471c-10.166-7.833-19.001-17.742-25.816-29.546c-0.047-0.081-0.091-0.164-0.132-0.247  C267.505,325.058,264.013,300.526,268.387,277.614L268.387,277.614z M367.747,250.701c-9.278,0-17.678,3.761-23.759,9.842  c-15.013,15.013-12.485,39.95,5.108,51.712c-14.6,3.626-27.811,11.447-38.102,22.828c-18.321-26.918-15.227-63.557,8.254-87.038  c26.786-26.785,70.215-26.785,97.001,0c23.481,23.481,26.576,60.119,8.253,87.038c-10.286-11.371-23.51-19.192-38.113-22.821  c9.139-6.106,14.96-16.438,14.96-27.96C401.349,265.746,386.304,250.701,367.747,250.701L367.747,250.701z M385.851,266.199  c-16.087-16.086-43.705-4.634-43.705,18.103c0,22.739,27.62,34.189,43.705,18.103C395.849,292.408,395.849,276.197,385.851,266.199  L385.851,266.199z M380.471,319.125v44.825c14.847-2.789,28.661-10.46,39.079-22.445  C409.283,329.672,395.576,321.942,380.471,319.125L380.471,319.125z M372.471,364.972v-46.862l-9.447-0.003v46.864H372.471  L372.471,364.972z M355.025,363.95v-44.831c-15.11,2.811-28.801,10.538-39.079,22.385  C326.368,353.492,340.171,361.16,355.025,363.95L355.025,363.95z M313.591,242.389c29.911-29.91,78.403-29.91,108.313,0  c29.91,29.91,29.911,78.403,0,108.314c-29.91,29.91-78.402,29.91-108.313,0C283.681,320.791,283.681,272.299,313.591,242.389  L313.591,242.389z M412.088,419.293l6.65-3.839l-14.24-24.664c-20.542,8.04-42.582,8.908-62.926,3.457  c-8.177-2.191-16.081-5.403-23.505-9.579H67.503c-23.594,0-42.884-19.29-42.884-42.884v-162.04  c-4.241-5.703-8.247-11.592-12.002-17.653c-0.404-0.653-0.595-1.378-0.594-2.094h-0.015V124.63  c0-24.959,20.406-45.366,45.366-45.366h47.643V34.657c0-12.468,10.186-22.654,22.654-22.654h192.838  c12.468,0,22.654,10.186,22.654,22.654v44.607h51.839c24.959,0,45.366,20.407,45.366,45.366v35.368c0,0.9-0.297,1.731-0.799,2.4  c-3.713,5.974-7.655,11.765-11.812,17.359v35.335c33.695,24.8,48.398,67.678,37.693,107.63c-5.043,18.823-15.502,36.2-30.694,49.602  l14.672,25.412l6.936-3.989c8.343-4.238,16.046,4.216,17.99,11.657c1.292,4.944,0.357,9.935-4.245,12.633l27.794,48.141l0.007-0.004  c4.402,7.623,1.555,17.477-5.947,21.506l-17.711,10.225c-7.471,4.313-17.039,1.748-21.362-5.726l-0.007,0.004l-27.829-48.2  C412.872,449.389,400.053,426.242,412.088,419.293L412.088,419.293z M425.649,411.464l16.88-9.746l-14.032-24.305  c-3.216,2.41-6.609,4.655-10.177,6.716l0.004,0.007c-2.132,1.231-4.291,2.374-6.471,3.433L425.649,411.464L425.649,411.464z   M463.209,422.019l-31.216,18.022l27.793,48.14l-0.007,0.004c2.2,3.696,6.889,4.898,10.502,2.812l18.103-10.465  c3.342-1.872,4.68-6.891,2.722-10.169c-0.11-0.168-0.208-0.344-0.292-0.529L463.209,422.019L463.209,422.019z M460.074,400.804  L416.088,426.2c-3.186,1.839,2.819,12.182,5.97,10.362l43.986-25.396C469.244,409.319,463.171,398.949,460.074,400.804  L460.074,400.804z M320.924,377.1c-13.622-7.9-25.422-19.363-33.86-33.979c-25.721-44.463-10.469-101.524,34.107-127.26  c45.148-26.066,101.889-9.838,127.26,34.107c12.859,22.273,15.471,47.656,9.299,70.69c-6.173,23.037-21.124,43.714-43.391,56.57  l-0.012,0.007l-0.004-0.007c-22.273,12.859-47.657,15.471-70.69,9.3c-7.794-2.089-15.318-5.185-22.362-9.229  C321.16,377.228,321.044,377.161,320.924,377.1L320.924,377.1z M419.757,209.774v-19.817c-3.872,4.683-7.918,9.229-12.127,13.629  C411.794,205.37,415.847,207.435,419.757,209.774L419.757,209.774z M399.5,200.511c-54.729-18.075-113.505,13.125-129.12,68.644  l-17.86,2.605v-18.411c0-7.755-6.33-14.085-14.085-14.085h-24.493c-7.755,0-14.085,6.331-14.085,14.085v18.412  c-36.863-3.969-71.261-16.185-101.312-34.769c-25.777-15.94-48.352-36.563-66.54-60.681c-0.115-0.182-0.245-0.355-0.387-0.516  c-4.099-5.465-7.973-11.107-11.609-16.914v-34.25c0-20.543,16.823-37.366,37.366-37.366h337.628  c20.543,0,37.366,16.823,37.366,37.366v34.253c-3.633,5.803-7.519,11.458-11.644,16.952c-0.114,0.133-0.22,0.273-0.316,0.42  C415.639,183.033,405.123,194.791,399.5,200.511L399.5,200.511z M188.619,162.925h75.139c5.266,0,5.266-8,0-8h-75.139  C183.352,154.925,183.352,162.925,188.619,162.925L188.619,162.925z M238.435,247.263c3.338,0,6.085,2.747,6.085,6.085v47.613  c0,3.338-2.747,6.085-6.085,6.085h-24.493c-3.339,0-6.085-2.746-6.085-6.085v-47.613c0-3.338,2.747-6.085,6.085-6.085H238.435  L238.435,247.263z M335.163,79.264V34.657c0-8.052-6.602-14.654-14.654-14.654H127.671c-8.052,0-14.654,6.602-14.654,14.654v44.607  h28.781v-26.48c0-2.209,1.791-4,4-4h156.584c2.209,0,4,1.791,4,4v26.48H335.163L335.163,79.264z M149.798,79.264h148.584v-22.48  H149.798V79.264z"/><text x="0.0" y="601.6" font-size="25.6" font-weight="bold" font-family="Arbeit Regular, Helvetica, Arial-Unicode, Arial, Sans-serif" fill="#000000">Created by captain_kid</text><text x="0.0" y="627.2" font-size="25.6" font-weight="bold" font-family="Arbeit Regular, Helvetica, Arial-Unicode, Arial, Sans-serif" fill="#000000">from Noun Project</text></svg>