<svg xmlns="http://www.w3.org/2000/svg" shape-rendering="geometricPrecision" text-rendering="geometricPrecision" image-rendering="optimizeQuality" fill-rule="evenodd" clip-rule="evenodd" viewBox="0 0 441 512.398"><path fill="#262626" fill-rule="nonzero" d="M60.863 0h174.809c3.382 0 6.384 1.619 8.279 4.124l110.107 119.119a10.292 10.292 0 012.745 7.012h.053v119.817a149.591 149.591 0 00-20.752-3.111v-92.212h-43.666v-.042h-.161c-22.046-.349-39.33-6.222-51.694-16.784-12.849-10.979-20.063-26.614-21.504-46.039a10.465 10.465 0 01-.095-1.404V20.752H60.863c-11.02 0-21.049 4.516-28.321 11.79-7.274 7.272-11.79 17.301-11.79 28.321v338.276c0 11.015 4.521 21.037 11.796 28.311 7.278 7.28 17.31 11.802 28.315 11.802h120.749a148.132 148.132 0 008.116 20.752H60.863c-16.73 0-31.958-6.85-42.987-17.881C6.852 431.099 0 415.882 0 399.139V60.863C0 44.114 6.842 28.894 17.87 17.87 28.894 6.842 44.114 0 60.863 0zm41.917 209.516c-5.727 0-10.372-4.645-10.372-10.372 0-5.726 4.645-10.372 10.372-10.372h151.286c5.727 0 10.372 4.646 10.372 10.372 0 5.727-4.645 10.372-10.372 10.372H102.78zm0 72.682c-5.727 0-10.372-4.646-10.372-10.373 0-5.727 4.645-10.372 10.372-10.372h143.27c2.83 0 5.395 1.134 7.265 2.971a149.435 149.435 0 00-25.876 17.774H102.78zm0 72.688c-5.727 0-10.372-4.645-10.372-10.372s4.645-10.372 10.372-10.372h85.566a148.095 148.095 0 00-7.597 20.744H102.78zM239.736 29.983v60.433c1.021 13.737 5.819 24.535 14.302 31.783 8.667 7.404 21.488 11.544 38.4 11.835v-.037h43.442L239.736 29.983z"/><path fill="red" d="M324.263 278.924c32.231 0 61.418 13.068 82.544 34.194C427.933 334.242 441 363.429 441 395.66c0 32.235-13.067 61.419-34.193 82.544-21.126 21.126-50.309 34.194-82.544 34.194-32.232 0-61.419-13.068-82.543-34.194-21.125-21.125-34.193-50.313-34.193-82.544 0-32.233 13.068-61.417 34.193-82.542 21.126-21.126 50.31-34.194 82.543-34.194z"/><path fill="#fff" fill-rule="nonzero" d="M317.528 333.073c14.546 0 28.536 5.813 38.824 16.1 10.325 10.288 16.1 24.259 16.1 38.834a54.828 54.828 0 01-7.329 27.396l19.765 22.29a3.987 3.987 0 01-.245 5.624l-15.215 13.895c-1.611 1.47-4.136 1.367-5.615-.244l-18.795-21.423a54.668 54.668 0 01-27.49 7.386c-14.546 0-28.536-5.823-38.833-16.082a54.826 54.826 0 01-16.1-38.842c0-7.377 1.498-14.481 4.173-20.981a55.357 55.357 0 0111.918-17.853 54.773 54.773 0 0138.842-16.1zm24.259 30.665c-6.491-6.491-15.092-10.052-24.259-10.052-9.195 0-17.758 3.561-24.268 10.052-6.199 6.199-10.052 14.791-10.052 24.269 0 9.157 3.552 17.786 10.042 24.258 6.501 6.482 15.093 10.062 24.278 10.062 9.158 0 17.787-3.589 24.259-10.062 6.472-6.472 10.062-15.101 10.062-24.258 0-9.167-3.58-17.787-10.062-24.269z"/></svg>